<svg xmlns="http://www.w3.org/2000/svg" viewBox="0 0 54 33" width="54" height="33"><path d="M27 0C19.8 0 15.3 3.6 13.5 10.8C16.2 7.2 19.35 5.85 22.95 6.75C25.005 7.263 26.472 8.751 28.096 10.398C30.744 13.083 33.81 16.2 40.5 16.2C47.7 16.2 52.2 12.6 54 5.4C51.3 9 48.15 10.35 44.55 9.45C42.495 8.937 41.028 7.449 39.404 5.802C36.756 3.117 33.69 0 27 0ZM13.5 16.2C6.3 16.2 1.8 19.8 0 27C2.7 23.4 5.85 22.05 9.45 22.95C11.505 23.464 12.972 24.951 14.596 26.598C17.244 29.283 20.31 32.4 27 32.4C34.2 32.4 38.7 28.8 40.5 21.6C37.8 25.2 34.65 26.55 31.05 25.65C28.995 25.137 27.528 23.649 25.904 22.002C23.256 19.317 20.19 16.2 13.5 16.2Z" fill="#38BDF8"/></svg>
